<?xml version="1.0" standalone="no"?>
<!DOCTYPE svg PUBLIC "-//W3C//DTD SVG 20010904//EN"
 "http://www.w3.org/TR/2001/REC-SVG-20010904/DTD/svg10.dtd">
<svg version="1.0" xmlns="http://www.w3.org/2000/svg"
 width="1843.000000pt" height="536.000000pt" viewBox="0 0 1843.000000 536.000000"
 preserveAspectRatio="xMidYMid meet">

<g transform="translate(0.000000,536.000000) scale(0.100000,-0.100000)"
fill="#040a4c" stroke="none">
<path d="M10800 4473 c-8 -3 -17 -9 -20 -14 -3 -4 -4 -854 -2 -1888 l2 -1881
393 2 392 3 5 675 5 675 545 6 c552 6 585 8 740 48 429 109 748 503 809 1001
30 239 -5 529 -86 720 -112 262 -259 418 -513 547 -36 18 -73 33 -82 33 -9 0
-19 4 -22 9 -3 5 -18 11 -33 14 -16 3 -59 13 -98 22 -50 12 -148 19 -350 25
-311 10 -1661 12 -1685 3z m1713 -686 c188 -37 306 -144 353 -320 23 -85 19
-314 -7 -400 -54 -181 -156 -282 -334 -333 -51 -14 -122 -17 -485 -20 -234 -2
-435 -1 -447 2 l-23 6 0 537 c0 296 3 541 8 545 4 5 198 6 432 3 319 -4 444
-9 503 -20z"/>
<path d="M14300 4475 c0 -3 0 -857 0 -1897 l0 -1893 432 -3 c605 -5 1655 17
1791 38 326 49 632 284 789 605 25 50 50 110 57 135 7 25 17 56 22 70 36 111
38 463 2 600 -69 262 -210 437 -452 561 -34 17 -61 35 -61 40 0 5 33 31 74 58
257 174 340 350 340 721 1 168 -6 217 -46 335 -115 342 -447 577 -883 625 -91
10 -2065 15 -2065 5z m1890 -680 c185 -39 281 -110 326 -240 10 -30 16 -82 16
-145 0 -128 -28 -196 -112 -273 -73 -67 -157 -99 -340 -128 -90 -15 -997 -16
-1011 -2 -5 5 -8 175 -7 404 l3 394 235 6 c345 9 812 0 890 -16z m27 -1466
c134 -18 199 -46 276 -118 113 -105 148 -218 128 -405 -28 -244 -130 -372
-341 -427 -19 -5 -138 -16 -265 -24 -186 -12 -293 -13 -560 -4 -181 5 -343 11
-358 12 l-28 2 1 479 c0 263 3 482 6 487 8 13 1046 11 1141 -2z"/>
<path d="M6930 3288 c0 -1369 6 -1544 56 -1758 82 -346 291 -605 619 -765 118
-57 117 -57 220 -89 97 -31 220 -59 335 -77 108 -17 464 -17 585 0 423 58 669
164 886 380 199 199 288 383 349 725 6 40 10 512 10 1413 l0 1353 -399 0 -399
0 -5 -1307 c-4 -1144 -7 -1318 -21 -1385 -72 -352 -299 -510 -731 -512 -153
-1 -188 5 -295 46 -173 66 -308 234 -360 446 -36 148 -40 298 -40 1523 l0
1189 -405 0 -405 0 0 -1182z"/>
<path d="M2805 4423 c-87 -3 -235 -20 -295 -34 -118 -27 -268 -70 -315 -89
-288 -118 -503 -266 -676 -463 -207 -236 -327 -478 -411 -827 -21 -87 -23
-118 -23 -365 0 -245 2 -279 23 -367 68 -295 188 -535 398 -798 99 -122 570
-597 601 -605 45 -11 45 8 2 95 -136 275 -188 434 -239 720 -16 93 -26 311
-18 405 58 687 336 1244 828 1656 417 350 741 466 1065 384 375 -95 633 -413
662 -817 14 -197 -65 -442 -189 -591 -55 -65 -150 -155 -201 -190 -47 -32
-181 -100 -218 -111 -13 -4 -49 -14 -79 -24 -40 -12 -95 -16 -205 -16 -128 -1
-161 3 -225 22 -77 24 -82 26 -162 61 -141 62 -103 7 203 -295 284 -280 375
-345 571 -406 64 -19 93 -22 243 -22 170 1 209 6 321 47 242 88 447 298 533
547 77 222 64 412 -49 700 -147 377 -507 776 -960 1063 -101 64 -336 179 -435
212 -249 84 -485 118 -750 108z"/>
<path d="M5124 4328 c-3 -5 1 -23 9 -41 46 -97 95 -206 106 -237 7 -19 17 -44
21 -55 72 -171 140 -529 140 -726 -1 -171 -41 -416 -110 -664 -92 -336 -298
-682 -565 -951 -139 -141 -350 -310 -475 -382 -19 -11 -63 -35 -96 -55 -65
-36 -177 -82 -279 -113 -46 -14 -94 -18 -205 -18 -131 0 -154 2 -235 28 -49
15 -94 32 -99 37 -6 5 -16 9 -23 9 -27 0 -180 108 -242 171 -122 123 -174 218
-242 439 -19 61 -19 327 0 395 54 199 147 350 287 471 290 250 645 292 1008
118 77 -37 74 -3 -9 87 -184 200 -428 446 -490 494 -210 162 -494 219 -765
154 -170 -41 -356 -155 -462 -282 -175 -211 -251 -494 -197 -737 93 -414 336
-787 724 -1110 50 -41 96 -81 104 -88 37 -35 308 -206 396 -251 146 -72 347
-146 465 -172 171 -36 233 -42 435 -42 272 -1 404 19 646 97 123 39 270 110
399 191 243 154 490 438 612 705 46 102 83 198 100 260 111 410 98 794 -39
1150 -110 285 -285 525 -677 927 -176 180 -225 219 -242 191z"/>
</g>
</svg>
